<?xml version="1.0" standalone="no"?>
<!DOCTYPE svg PUBLIC "-//W3C//DTD SVG 20010904//EN"
 "http://www.w3.org/TR/2001/REC-SVG-20010904/DTD/svg10.dtd">
<svg version="1.0" xmlns="http://www.w3.org/2000/svg"
 width="300.000000pt" height="225.000000pt" viewBox="0 0 300.000000 225.000000"
 preserveAspectRatio="xMidYMid meet">
<metadata>
Created by potrace 1.10, written by Peter Selinger 2001-2011
</metadata>
<g transform="translate(0.000000,225.000000) scale(0.100000,-0.100000)"
fill="#000000" stroke="none">
<path d="M1467 2171 c-10 -49 -8 -163 2 -157 5 3 14 -1 21 -9 7 -8 16 -15 21
-15 9 0 -6 33 -29 61 -12 15 -9 17 27 21 44 4 50 -2 26 -22 -18 -15 -21 -45
-3 -34 8 5 9 2 5 -10 -5 -11 -3 -15 5 -10 8 5 9 2 5 -10 -4 -10 -7 -21 -7 -26
0 -5 -7 -16 -16 -24 -9 -9 -11 -16 -4 -16 6 0 8 -5 4 -12 -4 -7 -3 -8 4 -4 7
4 12 2 12 -3 0 -6 -6 -11 -14 -11 -16 0 -39 24 -30 32 8 8 -28 76 -43 82 -8 4
-11 1 -8 -5 4 -5 7 -32 7 -60 -1 -27 3 -49 8 -49 5 0 8 14 8 30 -1 17 2 33 5
37 4 3 7 -5 7 -20 0 -14 5 -29 11 -33 8 -5 6 -10 -5 -16 -24 -14 -23 -138 1
-138 13 0 14 -3 5 -12 -14 -14 -16 -28 -3 -28 5 0 11 9 14 20 3 12 14 20 26
20 18 0 21 -5 18 -34 -2 -28 -6 -33 -29 -34 -39 -1 -50 19 -58 105 l-7 78 -3
-115 c-2 -63 -5 -144 -7 -180 -1 -36 -6 -303 -9 -595 -5 -464 -7 -567 -13
-697 -1 -21 -8 -29 -36 -39 -19 -7 -35 -17 -35 -22 0 -5 -11 -7 -25 -5 -14 3
-28 1 -31 -3 -3 -5 -15 -9 -27 -9 -12 0 -29 -5 -37 -10 -13 -8 -11 -12 7 -30
21 -19 35 -20 197 -20 96 0 177 4 180 8 3 5 29 9 58 10 29 0 54 6 56 12 2 5 7
8 11 6 4 -3 13 -1 21 4 24 15 0 29 -62 35 -53 6 -57 5 -60 -16 -4 -29 -39 -39
-143 -40 -90 -1 -112 5 -117 29 -3 15 -6 14 -24 -4 -20 -20 -30 -21 -94 -14
-9 1 -7 5 8 10 12 5 29 7 37 4 8 -4 15 -1 15 6 0 6 5 8 11 4 6 -3 24 4 41 16
25 18 32 19 45 8 22 -18 161 -18 172 0 4 7 4 34 0 60 -4 26 -8 68 -8 95 -1 30
-5 47 -13 47 -9 0 -9 3 1 9 12 8 15 36 15 133 0 68 -3 150 -7 183 -4 39 -3 51
2 35 6 -18 9 5 10 76 1 55 -2 104 -5 107 -13 12 -61 -63 -68 -104 -8 -49 -11
-48 -20 8 -5 34 -3 42 11 46 15 4 14 5 -3 6 -11 0 -29 11 -40 23 l-19 21 30
-5 c17 -3 39 -2 50 2 11 5 14 9 7 9 -7 1 -11 5 -8 9 3 5 -1 9 -9 10 -8 1 -22
3 -30 4 -12 1 -33 31 -23 34 2 0 -3 8 -11 17 -7 10 -9 17 -3 17 6 0 21 -13 35
-29 l24 -29 23 30 c12 16 19 32 16 35 -3 4 -25 7 -48 7 -30 1 -43 5 -44 16 0
9 1 10 3 2 5 -14 33 -17 33 -3 0 5 -6 11 -12 14 -7 2 -9 8 -5 13 5 5 15 0 23
-11 13 -17 16 -18 24 -5 5 8 18 15 28 16 16 1 19 -6 18 -47 -1 -27 -7 -54 -14
-61 -17 -17 -15 -28 7 -28 15 0 21 10 26 39 4 22 2 48 -3 58 -7 13 -6 24 4 37
8 11 10 24 5 30 -4 6 -7 45 -5 86 4 103 4 109 -2 242 -5 114 -6 119 -35 147
-31 32 -40 64 -13 54 8 -3 13 -11 11 -17 -3 -7 1 -20 8 -29 15 -21 13 -35 16
131 2 68 -1 106 -9 114 -16 16 -15 31 1 23 6 -4 4 0 -5 8 -10 8 -18 22 -18 33
0 17 1 17 13 1 10 -15 12 -12 12 23 0 22 -3 40 -7 40 -4 0 -6 34 -5 76 1 54
-1 71 -8 59 -29 -49 -31 -49 -53 -27 -25 25 -31 52 -8 33 12 -10 18 -7 30 16
13 27 13 29 -5 29 -14 0 -17 -6 -14 -26 4 -16 0 -13 -8 10 l-14 34 -6 -33z
m68 -327 c4 -22 2 -41 -4 -47 -8 -8 -11 -3 -11 17 0 15 -4 25 -10 21 -5 -3
-10 -15 -10 -26 0 -10 -4 -19 -10 -19 -5 0 -10 11 -10 25 0 14 5 25 11 25 6 0
8 9 4 20 -5 15 -2 20 13 20 15 0 22 -9 27 -36z m28 -86 c-4 -9 -43 3 -43 13 0
5 6 8 13 7 8 -2 14 14 16 47 l5 50 6 -55 c3 -30 4 -58 3 -62z m-63 12 c0 -5
-4 -10 -10 -10 -5 0 -10 5 -10 10 0 6 5 10 10 10 6 0 10 -4 10 -10z m10 -119
c0 -9 6 -23 12 -29 10 -10 5 -12 -24 -10 -35 2 -37 4 -31 28 3 14 8 28 10 32
7 13 33 -4 33 -21z m41 -61 c10 -6 19 -15 19 -21 0 -6 -5 -7 -11 -4 -5 4 -33
7 -60 7 -43 -1 -49 1 -39 14 14 16 63 19 91 4z m6 -53 c3 -4 5 -39 4 -79 -1
-46 4 -83 13 -100 14 -26 12 -38 -6 -38 -4 0 -8 11 -8 24 0 13 -7 29 -15 36
-11 9 -13 15 -5 20 8 5 6 9 -5 13 -9 4 -13 3 -10 -2 3 -5 1 -12 -5 -16 -5 -3
-10 1 -10 9 0 19 -9 20 -30 5 -13 -9 -13 -10 2 -6 19 6 33 -32 18 -47 -7 -7
-10 -4 -10 8 0 28 -24 13 -31 -20 l-7 -29 -1 33 c0 17 3 32 7 32 4 0 6 31 4
70 -2 38 -2 75 1 82 4 13 82 17 94 5z m-16 -187 c5 0 9 -9 9 -20 0 -11 5 -20
12 -20 9 0 9 -3 0 -12 -16 -16 -16 -125 1 -131 8 -3 9 -8 2 -15 -6 -6 -25 -7
-50 -2 -22 4 -35 8 -30 9 6 1 5 5 -2 9 -6 4 -12 35 -13 72 -2 94 -1 116 8 105
4 -5 15 -11 25 -11 12 -1 17 6 18 25 1 17 3 20 6 9 2 -10 9 -18 14 -18z m-71
-201 c0 -5 -4 -9 -10 -9 -5 0 -10 7 -10 16 0 8 5 12 10 9 6 -3 10 -10 10 -16z
m53 -25 c-3 -8 -9 -14 -13 -14 -4 0 -13 6 -19 14 -9 11 -7 14 13 14 17 0 23
-5 19 -14z m2 -84 c-10 -11 -19 -19 -19 -18 -1 2 -8 11 -15 21 -12 15 -10 17
19 17 32 0 33 0 15 -20z m-38 -66 c-3 -3 -12 -4 -19 -1 -8 3 -5 6 6 6 11 1 17
-2 13 -5z m-17 -69 c7 -8 13 -48 14 -94 1 -68 -2 -81 -16 -84 -13 -4 -18 -19
-21 -63 -2 -33 -2 -30 0 6 2 36 6 97 9 137 3 44 1 79 -6 92 -12 24 1 28 20 6z
m96 -7 c-3 -13 -6 -29 -6 -36 0 -7 -4 -10 -10 -7 -6 4 -6 -3 0 -21 11 -29 10
-94 -1 -94 -4 0 -10 15 -12 33 -3 28 -4 26 -5 -10 -1 -24 2 -43 7 -43 4 0 9
-27 9 -60 1 -54 -1 -60 -20 -60 -18 0 -20 5 -16 60 3 40 0 60 -7 60 -7 0 -10
-20 -7 -60 4 -56 3 -60 -17 -60 -20 0 -22 5 -20 56 2 42 7 58 21 65 15 8 17
17 12 46 -5 24 -3 34 4 29 6 -3 15 9 22 31 21 67 32 93 42 93 6 0 8 -10 4 -22z
m11 -80 c-3 -7 -5 -2 -5 12 0 14 2 19 5 13 2 -7 2 -19 0 -25z m-8 -204 c-3
-82 -14 -114 -39 -114 -4 0 -11 -8 -15 -17 -5 -15 -4 -16 6 -5 15 14 29 16 29
4 0 -5 -11 -14 -25 -20 -14 -6 -25 -17 -24 -24 0 -10 2 -10 6 0 2 6 13 12 24
12 20 0 23 -17 20 -118 -1 -32 2 -41 12 -36 6 4 3 -3 -8 -15 -12 -14 -14 -21
-6 -19 7 2 16 -3 18 -10 4 -9 -2 -11 -20 -7 -15 4 -28 2 -32 -5 -5 -9 -1 -10
14 -5 12 4 21 2 21 -4 0 -7 -22 -11 -52 -11 -48 0 -50 1 -32 15 18 14 18 14
-5 15 -23 0 -24 1 -6 13 12 10 14 16 7 21 -7 4 -12 18 -12 32 0 14 4 22 10 19
6 -3 10 -2 10 4 0 5 -6 12 -12 15 -10 5 -10 7 -1 12 7 3 9 13 6 21 -5 12 -2
15 10 10 26 -10 20 1 -9 16 -24 12 -25 15 -10 30 9 8 16 22 16 29 0 11 -2 11
-9 0 -7 -11 -9 -11 -14 2 -4 9 -3 15 1 15 4 -1 18 0 32 1 l25 2 -27 11 c-19 7
-28 18 -28 33 0 36 11 54 32 54 17 0 20 -5 16 -35 -4 -36 9 -50 33 -34 11 7
11 9 -4 9 -13 0 -17 7 -15 30 2 24 7 30 25 30 21 0 23 4 23 55 0 30 2 55 5 55
4 0 5 -39 4 -86z m126 -424 c3 -6 -4 -10 -17 -10 -18 0 -20 2 -8 10 19 12 18
12 25 0z m-325 -20 c0 -5 -2 -10 -4 -10 -3 0 -8 5 -11 10 -3 6 -1 10 4 10 6 0
11 -4 11 -10z"/>
<path d="M1486 1644 c-4 -9 -4 -19 -1 -22 2 -3 7 3 11 12 4 9 4 19 1 22 -2 3
-7 -3 -11 -12z"/>
<path d="M1475 1469 c0 -41 2 -45 17 -35 13 8 23 8 36 0 15 -10 17 -6 17 35 0
46 0 46 -35 46 -35 0 -35 0 -35 -46z m51 6 c-2 -11 -9 -20 -16 -20 -7 0 -14 9
-15 20 -1 14 5 21 16 21 13 0 17 -7 15 -21z"/>
<path d="M1476 1312 c-8 -13 11 -35 31 -38 10 -2 24 6 31 16 7 12 8 20 2 20
-5 0 -10 -4 -10 -8 0 -5 -10 -8 -22 -7 -13 2 -22 8 -20 14 2 13 -4 15 -12 3z"/>
<path d="M1500 1235 c0 -14 5 -25 10 -25 6 0 10 11 10 25 0 14 -4 25 -10 25
-5 0 -10 -11 -10 -25z"/>
<path d="M1511 744 c0 -11 3 -14 6 -6 3 7 2 16 -1 19 -3 4 -6 -2 -5 -13z"/>
<path d="M1532 630 c0 -14 2 -19 5 -12 2 6 2 18 0 25 -3 6 -5 1 -5 -13z"/>
<path d="M1465 550 c-3 -5 -1 -10 4 -10 6 0 11 5 11 10 0 6 -2 10 -4 10 -3 0
-8 -4 -11 -10z"/>
<path d="M1520 550 c0 -5 5 -10 10 -10 6 0 10 5 10 10 0 6 -4 10 -10 10 -5 0
-10 -4 -10 -10z"/>
<path d="M1486 463 c-6 -14 -5 -15 5 -6 7 7 10 15 7 18 -3 3 -9 -2 -12 -12z"/>
<path d="M1500 398 c0 -6 3 -8 7 -5 3 4 11 2 18 -3 8 -7 12 -5 12 5 0 8 -9 15
-19 15 -10 0 -18 -5 -18 -12z"/>
<path d="M1526 285 c-9 -26 -7 -32 5 -12 6 10 9 21 6 23 -2 3 -7 -2 -11 -11z"/>
<path d="M1523 2149 c-12 -23 -17 -36 -10 -31 18 15 50 72 40 72 -4 0 -18 -19
-30 -41z"/>
<path d="M1527 1733 c-4 -3 -7 -11 -7 -17 0 -6 5 -5 12 2 6 6 9 14 7 17 -3 3
-9 2 -12 -2z"/>
<path d="M1536 1101 c-4 -7 -5 -15 -2 -18 9 -9 19 4 14 18 -4 11 -6 11 -12 0z"/>
<path d="M2992 25 c0 -17 2 -22 5 -12 2 9 2 23 0 30 -3 6 -5 -1 -5 -18z"/>
</g>
</svg>
